# xmcd
#
# Track frame offsets:
#	150
#	12525
#	25025
#	40950
#	51725
#	61275
#	73825
#	86438
#	99363
#	111913
#	135650
#	152013
#	166725
#	183050
#	199238
#	218038
#	235963
#	257175
#	282238
#
# Disc length: 3949 seconds
#
# Revision: 1
# Processed by: cddbd v1.5.2PL0 Copyright (c) Steve Scherf et al.
# Submitted via: audiograbber 1.83.01
#
DISCID=0e0f6b13
DTITLE=James Brown - The very best of James Brown
DYEAR=1900
DGENRE=Soul
TTITLE0=James Brown - Please, please, please
TTITLE1=James Brown - Think
TTITLE2=James Brown - Night train
TTITLE3=James Brown - Out of sight
TTITLE4=James Brown - Papa's got a brand new bag
TTITLE5=James Brown - I got you
TTITLE6=James Brown - It's a man'man's man's world
TTITLE7=James Brown - Cold sweat
TTITLE8=James Brown - Say it loud
TTITLE9=James Brown - Get up
TTITLE10=James Brown - Hey America
TTITLE11=James Brown - Make it funky
TTITLE12=James Brown - I'm a greedy man
TTITLE13=James Brown - Get on the good food
TTITLE14=James Brown - Get up offa that thing
TTITLE15=James Brown - It's too funky in here
TTITLE16=James Brown - Living in America
TTITLE17=James Brown - I,m real
TTITLE18=James Brown - Hot pants
EXTD=
EXTT0=
EXTT1=
EXTT2=
EXTT3=
EXTT4=
EXTT5=
EXTT6=
EXTT7=
EXTT8=
EXTT9=
EXTT10=
EXTT11=
EXTT12=
EXTT13=
EXTT14=
EXTT15=
EXTT16=
EXTT17=
EXTT18=
PLAYORDER=
